<svg id="visual" viewBox="0 0 1920 200" width="1920" height="200" xmlns="http://www.w3.org/2000/svg" xmlns:xlink="http://www.w3.org/1999/xlink" version="1.1"><rect x="0" y="0" width="1920" height="200" fill="#F0F7F4"></rect><path d="M0 119L40 125.8C80 132.7 160 146.3 240 145.5C320 144.7 400 129.3 480 119C560 108.7 640 103.3 720 108.7C800 114 880 130 960 137.2C1040 144.3 1120 142.7 1200 148.8C1280 155 1360 169 1440 159.3C1520 149.7 1600 116.3 1680 108.2C1760 100 1840 117 1880 125.5L1920 134L1920 201L1880 201C1840 201 1760 201 1680 201C1600 201 1520 201 1440 201C1360 201 1280 201 1200 201C1120 201 1040 201 960 201C880 201 800 201 720 201C640 201 560 201 480 201C400 201 320 201 240 201C160 201 80 201 40 201L0 201Z" fill="#363732" stroke-linecap="round" stroke-linejoin="miter"></path></svg>