<svg id="visual" viewBox="0 0 1920 200" width="1920" height="200" xmlns="http://www.w3.org/2000/svg" xmlns:xlink="http://www.w3.org/1999/xlink" version="1.1"><path d="M0 73L35.5 89.3C71 105.7 142 138.3 213.2 144.5C284.3 150.7 355.7 130.3 426.8 119.2C498 108 569 106 640 107.3C711 108.7 782 113.3 853.2 122.2C924.3 131 995.7 144 1066.8 153.5C1138 163 1209 169 1280 161.2C1351 153.3 1422 131.7 1493.2 118.7C1564.3 105.7 1635.7 101.3 1706.8 103.8C1778 106.3 1849 115.7 1884.5 120.3L1920 125L1920 201L1884.5 201C1849 201 1778 201 1706.8 201C1635.7 201 1564.3 201 1493.2 201C1422 201 1351 201 1280 201C1209 201 1138 201 1066.8 201C995.7 201 924.3 201 853.2 201C782 201 711 201 640 201C569 201 498 201 426.8 201C355.7 201 284.3 201 213.2 201C142 201 71 201 35.5 201L0 201Z" fill="#363732" stroke-linecap="round" stroke-linejoin="miter"></path></svg>